<?xml version="1.0" encoding="utf-8"?>
<!-- Generator: Adobe Illustrator 24.1.1, SVG Export Plug-In . SVG Version: 6.00 Build 0)  -->
<svg version="1.1" id="Layer_1" xmlns="http://www.w3.org/2000/svg" xmlns:xlink="http://www.w3.org/1999/xlink" x="0px" y="0px"
	 viewBox="0 0 512 512" style="enable-background:new 0 0 512 512;" xml:space="preserve">
<style type="text/css">
	.st0{fill-rule:evenodd;clip-rule:evenodd;}
</style>
<g>
	<path class="st0" d="M48,96c-8.8,0-16,7.2-16,16v64h160c8.8,0,16,7.2,16,16c0,8.1,2.6,20.6,9.8,30.6c6.6,9.2,17.8,17.4,38.2,17.4
		s31.6-8.1,38.2-17.4c7.2-10,9.8-22.5,9.8-30.6c0-8.8,7.2-16,16-16h160v-64c0-8.8-7.2-16-16-16H48z M480,208H334.4
		c-2.3,12-7.1,23.4-14.2,33.4C307.6,258.8,286.8,272,256,272s-51.6-13.2-64.2-30.6c-7-10-11.9-21.4-14.2-33.4H32v192
		c0,8.8,7.2,16,16,16h416c8.8,0,16-7.2,16-16V208z M0,112c0-26.5,21.5-48,48-48h416c26.5,0,48,21.5,48,48v288c0,26.5-21.5,48-48,48
		H48c-26.5,0-48-21.5-48-48V112z"/>
</g>
</svg>
